<svg width="97" height="36" viewBox="0 0 97 36" fill="none" xmlns="http://www.w3.org/2000/svg">
<path d="M27.0964 20.8928C22.8214 20.8928 19.7036 24.3 19.7036 28.4464V28.4786C19.7036 32.625 22.7893 36 27.0643 36C31.3393 36 34.4893 32.5928 34.4893 28.4464V28.4143C34.4893 24.2678 31.4036 20.8928 27.0964 20.8928ZM31.275 28.4786C31.275 30.8893 29.3143 32.8178 26.9036 32.7857C24.4929 32.7857 22.5643 30.825 22.5964 28.4143V28.3821C22.5964 25.875 24.4607 23.9786 26.9036 23.9786C29.2821 23.9464 31.2429 25.8428 31.275 28.2214C31.275 28.2857 31.275 28.35 31.275 28.4143V28.4786ZM13.8857 21.2464H17.0679V35.6786H13.8857V21.2464ZM11.1214 32.7536V35.6464H0V21.2786H3.18214V32.5928H11.1536L11.1214 32.7536ZM49.2429 21.2464V35.6786H46.1572L39.6643 26.6143V35.6786H36.5786V21.2786H39.6643L46.1572 30.4393V21.2786L49.2429 21.2464ZM35.0036 -6.48166e-06C30.7286 -6.48166e-06 27.6107 3.40714 27.6107 7.55357V7.58571C27.6107 11.7321 30.6964 15.1071 34.9714 15.1071C39.2464 15.1071 42.3964 11.7 42.3964 7.55357V7.52142C42.3964 3.37499 39.3107 -6.48166e-06 35.0036 -6.48166e-06ZM39.3429 7.58571C39.3429 9.99642 37.3821 11.925 34.9714 11.8929C32.5607 11.8929 30.6321 9.93214 30.6643 7.52142V7.48928C30.6 5.14285 32.4321 3.18214 34.7786 3.08571C34.8429 3.08571 34.9071 3.08571 34.9714 3.08571C37.35 3.05357 39.3107 4.94999 39.3429 7.32856C39.3429 7.39285 39.3429 7.45714 39.3429 7.52142V7.58571ZM6.94286 0.353565H0V14.7857H3.18214V10.1571H6.975C9.675 10.1571 11.8607 7.97142 11.8607 5.23928C11.8286 2.57142 9.64286 0.385708 6.94286 0.353565ZM6.65357 7.26428H3.15V3.21428H6.65357C7.77857 3.21428 8.67857 4.11428 8.67857 5.23928C8.67857 6.36428 7.77857 7.26428 6.65357 7.26428ZM22.9821 9.83571C25.5214 8.87142 26.8071 6.04285 25.8429 3.53571C25.1357 1.60714 23.3036 0.353565 21.2786 0.353565H13.6607V14.7857H16.8429V10.1571H19.5429L22.7893 14.7857H26.4857L22.9821 9.83571ZM20.7 7.26428H16.8429V3.21428H20.7C21.825 3.21428 22.725 4.11428 22.725 5.23928C22.725 6.36428 21.825 7.26428 20.7 7.26428ZM96.7822 3.24642H92.0893V14.7857H88.9072V3.27856H84.2143V0.385708H96.75L96.7822 3.24642ZM59.8821 3.18214V5.94642H67.4036V8.77499H59.8821V11.925H67.7571V14.7536H56.7V0.353565H67.7571V3.18214H59.8821ZM79.8107 9.89999C79.2 11.1536 77.9143 11.9571 76.5 11.925C74.2179 11.925 72.5143 10.0607 72.5143 7.55357V7.52142C72.5143 5.04642 74.2179 3.21428 76.4679 3.21428C77.8179 3.14999 79.0714 3.88928 79.65 5.11071H83.3464C82.4786 2.02499 79.65 -0.0642922 76.5 -6.48166e-06C72.2893 -6.48166e-06 69.2357 3.40714 69.2357 7.55357V7.58571C69.2357 11.7321 72.2571 15.1071 76.4357 15.1071C79.9393 15.1071 82.575 12.8893 83.3464 9.89999H79.8107ZM54.1286 0.353565V10.4464V10.4786C54.0964 13.0178 51.7179 15.075 48.7286 15.1071H48.6321C48.2464 15.1071 47.8607 15.075 47.475 15.0107C45.5464 14.6571 44.0036 13.4679 43.3929 11.8929C43.2321 11.5071 43.1357 11.0893 43.1357 10.6393C43.1357 10.575 43.1357 10.5107 43.1357 10.4464V10.35H46.35C46.35 10.3821 46.35 10.4143 46.35 10.4464C46.35 10.4786 46.3821 10.6071 46.3821 10.7036C46.4143 10.7678 46.4143 10.8321 46.4464 10.9286C46.7357 11.6036 47.3464 12.0536 48.0536 12.15C48.2143 12.1821 48.3429 12.1821 48.5036 12.1821H48.5357C49.5964 12.1821 50.4643 11.5071 50.625 10.6393C50.6571 10.5107 50.6572 10.2536 50.6572 10.2536V7.19999V3.27856V0.385708L54.1286 0.353565Z" fill="white"/>
</svg>
